<svg width="48" height="48" viewBox="0 0 48 48" fill="none" xmlns="http://www.w3.org/2000/svg">
  <!-- Background circle -->
  <circle cx="24" cy="24" r="24" fill="#2C4A6B"/>
  
  <!-- Stylized L - left side, angular with curved top -->
  <path d="M 12 30 L 12 20 Q 12 16 16 16 L 20 16 L 20 24 L 24 24" 
        stroke="#0066CC" 
        stroke-width="3" 
        stroke-linecap="round" 
        stroke-linejoin="round" 
        fill="none"/>
  <path d="M 20 24 L 24 24 L 24 30 L 20 30 Z" fill="#0066CC"/>
  
  <!-- Stylized T - right side, angular with curved bottom -->
  <path d="M 24 24 L 30 24 L 30 16 Q 32 16 32 18 L 32 20" 
        stroke="#0066CC" 
        stroke-width="3" 
        stroke-linecap="round" 
        stroke-linejoin="round" 
        fill="none"/>
  <path d="M 30 24 L 36 24 L 36 20 Q 36 18 34 18 L 32 18" 
        stroke="#0066CC" 
        stroke-width="3" 
        stroke-linecap="round" 
        stroke-linejoin="round" 
        fill="none"/>
  <path d="M 30 20 L 30 24 L 36 24 L 36 30 Q 36 32 34 32 L 30 32 L 30 30" 
        fill="#0066CC"/>
</svg>
